<svg width="160" height="160" viewBox="0 0 160 160" xmlns="http://www.w3.org/2000/svg">
  <defs>
    <linearGradient id="pawGlow" x1="0%" y1="0%" x2="100%" y2="100%">
      <stop offset="0%" stop-color="#bccad6" stop-opacity="0.45" />
      <stop offset="100%" stop-color="#7fbf8a" stop-opacity="0.25" />
    </linearGradient>
  </defs>
  <rect width="160" height="160" fill="none" />
  <g fill="url(#pawGlow)" fill-rule="evenodd">
    <g transform="translate(18 24) rotate(-8)">
      <ellipse cx="26" cy="18" rx="10" ry="12" />
      <ellipse cx="50" cy="14" rx="8" ry="10" />
      <ellipse cx="60" cy="34" rx="9" ry="11" />
      <ellipse cx="38" cy="40" rx="8" ry="10" />
      <ellipse cx="44" cy="62" rx="18" ry="22" />
    </g>
    <g transform="translate(90 20) rotate(12)">
      <ellipse cx="28" cy="18" rx="9" ry="11" />
      <ellipse cx="50" cy="18" rx="8" ry="10" />
      <ellipse cx="60" cy="34" rx="9" ry="11" />
      <ellipse cx="38" cy="36" rx="8" ry="10" />
      <ellipse cx="44" cy="58" rx="18" ry="22" />
    </g>
    <g transform="translate(28 96) rotate(18)">
      <ellipse cx="24" cy="16" rx="8" ry="10" />
      <ellipse cx="46" cy="14" rx="7" ry="9" />
      <ellipse cx="56" cy="30" rx="8" ry="10" />
      <ellipse cx="34" cy="32" rx="7" ry="9" />
      <ellipse cx="40" cy="52" rx="16" ry="20" />
    </g>
    <g transform="translate(100 108) rotate(-6)">
      <ellipse cx="26" cy="18" rx="9" ry="11" />
      <ellipse cx="48" cy="16" rx="7" ry="9" />
      <ellipse cx="58" cy="32" rx="8" ry="10" />
      <ellipse cx="36" cy="34" rx="7" ry="9" />
      <ellipse cx="42" cy="54" rx="17" ry="21" />
    </g>
  </g>
</svg>
